HIERARCHY
ROOT Hips
{
    OFFSET 0.000000 0.000000 0.000000
    CHANNELS 6 Xposition Yposition Zposition Zrotation Xrotation Yrotation
    JOINT Spine
    {
        OFFSET -0.000000 14.517291 0.000000
        CHANNELS 3 Zrotation Xrotation Yrotation
        JOINT Spine1
        {
            OFFSET -0.000000 37.558300 0.000000
            CHANNELS 3 Zrotation Xrotation Yrotation
            JOINT Neck
            {
                OFFSET -0.000000 37.404057 3.400369
                CHANNELS 3 Zrotation Xrotation Yrotation
                JOINT Head
                {
                    OFFSET -0.000000 24.785618 -3.540803
                    CHANNELS 3 Zrotation Xrotation Yrotation
                    End Site
                    {
                        OFFSET -0.000000 35.408028 0.000000
                    }
                }
            }
            JOINT LeftShoulder
            {
                OFFSET 6.992933 33.973492 -0.192664
                CHANNELS 3 Zrotation Xrotation Yrotation
                JOINT LeftArm
                {
                    OFFSET 21.527611 0.000000 0.000000
                    CHANNELS 3 Zrotation Xrotation Yrotation
                    JOINT LeftForeArm
                    {
                        OFFSET 56.353916 0.000000 0.000000
                        CHANNELS 3 Zrotation Xrotation Yrotation
                        JOINT LeftHand
                        {
                            OFFSET 47.774071 0.000000 0.000000
                            CHANNELS 3 Zrotation Xrotation Yrotation
                            End Site
                            {
                                OFFSET 26.556021 0.000000 0.000000
                            }
                        }
                    }
                }
            }
            JOINT RightShoulder
            {
                OFFSET -7.065357 33.973492 -0.192664
                CHANNELS 3 Zrotation Xrotation Yrotation
                JOINT RightArm
                {
                    OFFSET -21.527611 0.000000 0.000000
                    CHANNELS 3 Zrotation Xrotation Yrotation
                    JOINT RightForeArm
                    {
                        OFFSET -56.353916 0.000000 0.000000
                        CHANNELS 3 Zrotation Xrotation Yrotation
                        JOINT RightHand
                        {
                            OFFSET -47.774071 0.000000 0.000000
                            CHANNELS 3 Zrotation Xrotation Yrotation
                            End Site
                            {
                                OFFSET -26.556021 0.000000 0.000000
                            }
                        }
                    }
                }
            }
        }
    }
    JOINT LeftUpLeg
    {
        OFFSET 17.704014 0.000000 0.000000
        CHANNELS 3 Zrotation Xrotation Yrotation
        JOINT LeftLeg
        {
            OFFSET -0.000000 -81.181816 0.000000
            CHANNELS 3 Zrotation Xrotation Yrotation
            JOINT LeftFoot
            {
                OFFSET -0.000000 -62.821102 0.000000
                CHANNELS 3 Zrotation Xrotation Yrotation
                JOINT LeftToeBase
                {
                    OFFSET -0.000000 -11.507608 26.556021
                    CHANNELS 3 Zrotation Xrotation Yrotation
                    End Site
                    {
                        OFFSET -0.000000 0.000000 7.081605
                    }
                }
            }
        }
    }
    JOINT RightUpLeg
    {
        OFFSET -17.704014 0.000000 0.000000
        CHANNELS 3 Zrotation Xrotation Yrotation
        JOINT RightLeg
        {
            OFFSET -0.000000 -81.181816 0.000000
            CHANNELS 3 Zrotation Xrotation Yrotation
            JOINT RightFoot
            {
                OFFSET -0.000000 -62.821102 0.000000
                CHANNELS 3 Zrotation Xrotation Yrotation
                JOINT RightToeBase
                {
                    OFFSET -0.000000 -11.507608 26.556021
                    CHANNELS 3 Zrotation Xrotation Yrotation
                    End Site
                    {
                        OFFSET -0.000000 0.000000 7.081605
                    }
                }
            }
        }
    }
}
MOTION
Frames:    11
Frame Time:    0.008333
-4.538351    159.039230    -21.244686    0.438553    2.127074    -34.768074    4.378866    0.649965    0.228327    -4.033075    1.838455    0.148955    17.392748    5.151100    16.245838    -9.922918    -1.697038    13.586212    0.699101    9.606602    -12.954122    -33.851925    4.320633    -29.293909    29.165049    -42.631580    -44.458900    -19.417742    -27.962185    -33.160831    -6.926677    4.110222    -2.780177    34.166618    8.039046    78.233505    8.852337    -5.606040    88.068832    6.717609    -12.866254    20.761000    25.763371    -21.208973    7.671966    -8.898884    11.133623    1.630578    -20.359381    18.078562    36.028214    0.000000    0.000000    0.000000    -5.702842    -5.576735    -2.371789    7.527491    28.702955    -1.407101    4.092187    -20.512777    -16.007811    0.000000    0.000000    0.000000    
-4.739897    159.178024    -21.840651    0.525067    2.142668    -34.648502    4.414066    0.583891    0.178255    -4.217207    1.868405    0.134946    17.393347    5.151499    16.214367    -9.869031    -1.692793    13.561943    0.746511    9.598278    -13.013515    -33.891449    4.200326    -29.191744    28.975325    -42.598171    -44.718323    -19.315228    -27.968149    -33.073425    -6.944876    4.045365    -2.774667    34.122318    8.052924    78.278320    8.842210    -5.618012    88.001022    6.705024    -12.863459    20.713161    25.727047    -21.394016    8.030645    -8.749748    10.947838    1.556017    -20.600180    18.619335    36.280224    0.000000    0.000000    0.000000    -5.564240    -5.656332    -2.316648    7.559344    28.456648    -1.470820    3.907637    -20.343420    -16.090654    0.000000    0.000000    0.000000    
-4.912529    159.308640    -22.407093    0.606355    2.146532    -34.509434    4.416230    0.569911    0.129985    -4.315382    1.855667    0.120770    17.378601    5.160552    16.172575    -9.883220    -1.706646    13.517860    0.725774    9.614629    -13.078464    -33.889000    4.116076    -29.116781    28.867325    -42.581696    -44.894615    -19.379189    -27.917751    -33.123478    -7.000841    4.018441    -2.830155    34.029041    8.073524    78.382797    8.802603    -5.715718    87.942894    6.714102    -12.910236    20.733290    25.680912    -21.620775    8.254097    -8.715308    10.919694    1.546898    -20.573984    19.025721    36.456875    0.000000    0.000000    0.000000    -5.431577    -5.776822    -2.294050    7.563340    28.328650    -1.506378    3.731094    -20.165550    -16.228601    0.000000    0.000000    0.000000    
-5.074098    159.437042    -22.930738    0.704040    2.120193    -34.383282    4.409303    0.551362    0.063930    -4.445747    1.852215    0.099889    17.396652    5.186355    16.156324    -9.928055    -1.707463    13.496110    0.731942    9.654639    -13.086330    -33.890827    3.995131    -29.091309    28.760466    -42.519611    -45.048161    -19.435888    -27.822105    -33.163361    -7.073622    3.953228    -2.802617    33.945580    8.105727    78.412346    8.739080    -5.819474    87.914772    6.766016    -12.933691    20.807659    25.604542    -21.833082    8.478074    -8.754689    10.989847    1.501884    -20.377871    19.392839    36.577461    0.000000    0.000000    0.000000    -5.340621    -5.829334    -2.189608    7.600091    28.111828    -1.556018    3.524897    -20.020489    -16.408115    0.000000    0.000000    0.000000    
-5.219217    159.548279    -23.437361    0.797470    2.118159    -34.250282    4.397943    0.514278    -0.001405    -4.537014    1.854528    0.090563    17.392891    5.186410    16.128477    -9.966790    -1.676420    13.464083    0.728752    9.675669    -13.130579    -33.896889    3.926714    -29.058119    28.738853    -42.464561    -45.147713    -19.371836    -27.765949    -33.098366    -7.133821    3.916769    -2.818614    33.894958    8.091076    78.488846    8.695919    -5.853508    87.852249    6.765238    -12.919819    20.763023    25.502079    -22.089724    8.832282    -8.744974    11.195503    1.352743    -20.007528    19.722652    36.568336    0.000000    0.000000    0.000000    -5.230658    -5.940789    -2.056018    7.639065    28.017654    -1.537697    3.292088    -19.934212    -16.709320    0.000000    0.000000    0.000000    
-5.327902    159.670227    -23.884943    0.894496    2.058329    -34.096397    4.403063    0.512736    -0.082389    -4.689436    1.905126    0.056236    17.439104    5.187573    16.105469    -10.106741    -1.725270    13.409587    0.749406    9.675250    -13.134978    -33.924995    3.810948    -29.068213    28.625242    -42.451591    -45.315208    -19.377758    -27.747957    -33.104050    -7.173098    3.817462    -2.822589    33.872639    8.079080    78.527771    8.723416    -5.859757    87.858887    6.693917    -12.962933    20.807955    25.350899    -22.304041    8.907580    -8.899294    11.466492    1.184478    -19.578669    19.827112    36.703682    0.000000    0.000000    0.000000    -5.178723    -5.969207    -1.926684    7.668984    27.829437    -1.533539    3.080443    -19.795490    -17.003536    0.000000    0.000000    0.000000    
-5.446220    159.780243    -24.323326    0.983232    2.002172    -33.986122    4.336885    0.528727    -0.137109    -4.730464    1.917016    0.038142    17.404776    5.239249    16.090656    -10.143729    -1.819483    13.391998    0.750762    9.728386    -13.141308    -33.923763    3.786731    -29.095995    28.635519    -42.511833    -45.384598    -19.416143    -27.789124    -33.091839    -7.225235    3.795913    -2.834009    33.773239    8.069863    78.608116    8.672307    -5.970440    87.857330    6.781120    -13.002522    20.883940    25.204536    -22.503164    9.110698    -9.034917    11.825547    1.018121    -19.166040    19.728054    36.700768    0.000000    0.000000    0.000000    -5.100080    -6.013578    -1.694750    7.708835    27.657288    -1.577319    2.841374    -19.662380    -17.333330    0.000000    0.000000    0.000000    
-5.556062    159.897629    -24.723717    1.063640    1.913860    -33.865662    4.265235    0.539094    -0.168697    -4.796233    1.997717    0.032761    17.451120    5.238531    16.069622    -10.247205    -1.850929    13.346219    0.785040    9.679915    -13.230721    -33.995602    3.610321    -29.073011    28.431984    -42.390987    -45.618149    -19.304842    -27.697908    -33.062920    -7.243540    3.737934    -2.868582    33.781834    8.020983    78.633156    8.636677    -5.941187    87.860207    6.731602    -12.952398    20.837194    25.058468    -22.663532    9.159342    -9.268950    12.238905    0.777319    -18.692987    19.482231    36.649731    0.000000    0.000000    0.000000    -5.038974    -6.006343    -1.473885    7.732953    27.471527    -1.575451    2.636879    -19.531418    -17.703909    0.000000    0.000000    0.000000    
-5.648759    160.014862    -25.097668    1.154327    1.803923    -33.769073    4.169860    0.596361    -0.207571    -4.837610    2.034364    0.022232    17.408152    5.161654    16.073370    -10.211578    -1.806808    13.351802    0.784639    9.712500    -13.246089    -33.953304    3.661623    -29.117659    28.528175    -42.489536    -45.608852    -19.328100    -27.774963    -33.055813    -7.265245    3.675024    -2.885209    33.733604    8.025078    78.678818    8.561414    -5.981580    87.877876    6.720641    -12.928225    20.783031    24.783386    -22.810263    9.374228    -9.285585    12.746251    0.409844    -18.229685    19.130709    36.410683    0.000000    0.000000    0.000000    -5.012952    -5.985430    -1.232591    7.762121    27.283884    -1.549875    2.416681    -19.407566    -18.075932    0.000000    0.000000    0.000000    
-5.730965    160.132462    -25.434511    1.230953    1.671856    -33.675812    4.059191    0.657607    -0.236493    -4.851030    2.097362    0.016620    17.365276    5.212222    16.017008    -10.277085    -1.920849    13.285145    0.778702    9.724053    -13.292943    -33.934975    3.628097    -29.147654    28.518435    -42.464931    -45.664326    -19.221062    -27.767328    -33.032463    -7.302160    3.664455    -2.903535    33.738930    7.975780    78.712822    8.590815    -6.000950    87.928421    6.697836    -12.985912    20.792185    24.523487    -22.910336    9.384532    -9.388162    13.285283    0.085163    -17.895126    18.472498    36.190632    0.000000    0.000000    0.000000    -4.996776    -5.927196    -0.997776    7.779388    27.045628    -1.561376    2.238111    -19.229971    -18.413752    0.000000    0.000000    0.000000    
-5.805369    160.249512    -25.754919    1.300830    1.547928    -33.601814    3.961451    0.721639    -0.236288    -4.886522    2.166790    0.020267    17.367918    5.201153    15.992131    -10.318045    -1.962196    13.247033    0.815113    9.720618    -13.363102    -33.951843    3.588806    -29.202545    28.526567    -42.501484    -45.697498    -19.334219    -27.758432    -33.093082    -7.301692    3.663889    -2.942708    33.717171    7.975268    78.782066    8.512985    -6.109121    87.953438    6.703647    -13.018597    20.822315    24.272141    -23.008083    9.334412    -9.563799    13.854933    -0.097530    -17.669083    17.614710    36.041939    0.000000    0.000000    0.000000    -4.977570    -5.864678    -0.774547    7.780127    26.839706    -1.563359    2.043001    -19.055332    -18.661680    0.000000    0.000000    0.000000    
